<svg xmlns="http://www.w3.org/2000/svg" viewBox="0 0 1200 1100"><path transform="translate(78,100)" fill="#a7aaad" d="M842.67965,665.220694 C843.915686,663.050708 845.623376,657.966133 848.019909,648.48837 C860.607321,598.707915 886.564335,518.969075 894.823405,513.053813 C903.082476,507.138551 905.651445,510.948238 916.34429,511.977368 C927.037136,513.006497 941.188425,514.458584 946.789517,510.60246 C959.075969,502.143739 965.532329,490.992268 960.214069,484.777241 C947.538112,469.96386 932.890995,455.02564 929.00408,451.098364 C918.374724,440.358636 920.931663,429.685385 919.382914,419.21045 C917.834165,408.735516 911.590126,392.81549 911.590126,392.81549 C911.590126,392.81549 939.102132,335.841714 918.9352,345.43685 C914.078747,347.74748 873.720487,371.075304 868.13262,371.075304 C856.4767,371.075304 852.974159,370.24115 842.467314,359.60446 C833.710039,350.738961 823.857678,325.789267 813.081631,306.499585 C806.578951,294.859452 795.483895,313.4259 788.422775,334.35122 C787.025246,338.492735 779.882033,368.047577 781.153558,378.980805 C782.425082,389.914033 757.392563,419.713186 746.401523,430.095842 C740.615939,435.561179 734.103525,441.174034 726.652393,446.363339 C702.605858,458.454056 667.219802,471.118381 601.248053,484.073477 C593.359554,485.622569 585.750526,487.103077 578.408265,488.521518 C578.259189,488.545654 578.110048,488.569836 577.960842,488.594064 C570.334738,489.832395 566.326951,490.576626 565.272369,491.048402 C388.429558,524.927078 375.883504,521.957805 324.684592,586.253146 C295.434603,622.985138 275.014818,726.691075 271.266136,784.034592 C266.837919,816.550706 271.44776,840.90062 275.925319,852.571196 C283.364254,871.960478 317.111221,866.069571 319.902268,882.817685 C322.693315,899.565799 327.029599,899.665457 272.753628,899.665457 C255.823951,899.665457 246.763075,899.002264 235.490689,893.310671 C224.218304,887.619078 220.583651,872.367084 216.942784,860.883357 C213.301917,849.39963 192.032058,769.07427 189.0378,732.394613 C186.895544,706.151973 193.172748,683.905361 202.943974,650.350674 C209.558085,627.637618 217.524286,597.809602 224.043379,557.266582 C222.273667,562.639148 221.163846,566.037715 221.163846,566.037715 C221.163846,566.037715 215.888909,583.545895 195.047845,648.957414 C193.536258,653.701663 191.922805,658.546643 190.05017,663.442028 C186.989639,671.794322 183.011715,680.279775 177.442847,688.654815 C168.331072,702.61253 154.977953,716.285956 133.793951,728.526822 C123.650248,734.388212 114.357292,739.448181 105.857632,743.768163 C-89.3923912,848.884378 41.428151,683.169597 75.4822882,627.600842 C76.2571928,626.33637 77.2030324,625.022846 78.3142305,623.662159 C124.606244,547.023736 168.810008,471.32221 213.115002,437.557893 C258.201084,403.198318 266.48767,391.677963 378.398902,369.208127 C445.561271,355.723088 614.80782,331.761883 728.304702,294.124345 C715.304037,284.883736 710.423338,274.071862 709.48769,272.973949 C697.965389,259.453401 738.511221,228.866437 769.456791,208.230399 C769.960834,207.814801 770.339797,207.530819 770.601234,207.379212 C782.349381,200.566482 780.44365,183.97475 782.76379,168.395021 C785.342492,151.079053 791.446862,135.013214 791.446862,135.013214 C791.446862,135.013214 747.000569,48.9898118 777.334568,63.2609877 C784.63938,66.6976682 845.344075,101.393942 853.74904,101.393942 C871.281238,101.393942 876.54957,100.153276 892.353393,84.3329611 C905.525609,71.1469996 920.344993,34.0384619 936.553735,5.34825511 C946.334712,-11.9645149 961.526395,15.6500013 975.141138,46.7729497 C977.713875,52.6541604 987.19424,82.7986725 990.565784,98.197345 C993.383108,111.064758 1025.66244,170.359525 1034.36198,237.25903 C1049.40968,325.131288 1037.81289,445.546853 960.971091,594.328807 C945.881658,631.734285 926.821032,675.014837 919.108645,708.977141 C908.145361,757.255116 893.02717,832.00986 900.466685,851.392536 C907.906201,870.775212 941.359888,867.235461 943.201406,881.628719 C944.164839,889.158884 946.412111,893.419723 940.563379,895.771001 C936.463739,898.570793 925.133705,899.509536 896.821447,899.509536 C878.773624,899.509536 864.387145,899.94159 853.854663,891.624197 C842.814471,882.905871 842.149099,874.707853 837.458193,860.727436 C834.619795,852.26809 832.172398,827.647302 831.376335,798.618485 C830.46163,779.412308 830.241218,758.202131 831.50088,738.431028 C832.698269,719.637323 836.125792,696.689345 841.972469,668.757981 C842.203541,667.587598 842.439244,666.408522 842.67965,665.220694 Z"/></svg>